<?xml version="1.0" encoding="UTF-8"?>
<svg id="Layer_2" data-name="Layer 2" xmlns="http://www.w3.org/2000/svg" viewBox="0 0 4202.25 4760">
  <defs>
    <style>
      .cls-1 {
        fill: #5e8e3e;
      }

      .cls-2 {
        fill: #95be47;
      }

      .cls-3 {
        fill: #fefefd;
      }
    </style>
  </defs>
  <g id="Layer_1-2" data-name="Layer 1">
    <g>
      <path class="cls-2" d="M2956.45,4760h-74.38c-3.53-8.89-11.64-8.35-19.14-9.65-241.61-41.72-483.19-83.59-724.79-125.33-296.29-51.19-592.6-102.27-888.89-153.44-278.08-48.02-556.11-96.33-834.24-144.05C276.76,4303.83,138.34,4281.13,0,4257.97c0-18.59,0-37.19,0-55.78,2.64-5.46,6.94-10.7,7.69-16.41,25.44-192.9,50.79-385.81,75.63-578.79,29.19-226.68,57.41-453.48,86.94-680.11,32.52-249.58,66.6-498.96,99.02-748.56,32.42-249.61,64.91-499.22,94.62-749.16,9-75.74,44.62-117.96,118.67-139.25,146.71-42.17,291.28-91.76,437.38-136.12,34.43-10.45,51.94-24.67,60.14-63.35,60.27-284.29,177.33-543.35,358.14-771.74,99.41-125.56,217.63-228.71,370.77-285.14,34.12-12.57,69.25-22.44,103.91-33.55,52.68,0,105.37,0,158.05,0,77.78,28.91,155.1,58.56,208.58,127.32,7.81,10.05,18.55,8.16,29.59,7.8,148.32-4.81,265.54,57.23,359.62,168.37,61.72,72.91,105.27,156.64,134.42,246.48,14.04,43.27,32.77,43.47,69.15,32.27,50.85-15.66,100.37-41.65,156.64-31.7,3.01,589.93-5.03,1179.84,5.63,1769.81,6.85,379.32,1.67,758.85,1.96,1138.29,.31,410.41,.55,820.82,1.45,1231.23,.05,21.69-9.53,47.72,17.3,62.72,.46,2.46,.84,4.94,1.14,7.43Zm-574.72-2279.64c1.44,0,2.88,0,4.32,0,0-38.73-1.98-77.59,.55-116.16,2.64-40.34-16.85-56.07-53.65-59.33-55.53-4.92-110.98-10.77-166.47-16.24-12.17-1.2-24.25-.87-33.9-11.54-36.13-39.96-44.82-136.09-16.99-181.69,33.8-55.39,65.7-111.94,99.84-167.11,17.59-28.42,14.96-50.72-9.64-73.75-40.58-37.98-81.19-76.23-118.37-117.44-29.3-32.48-53.81-28.94-82.24-1.36-38.85,37.68-83.29,70.7-116.74,112.59-42.99,53.83-87.17,26.29-132.62,13.02-41.1-12-30.45-49.52-34.56-77.85-5.76-39.75-6.74-80.19-9.79-120.34-2.98-39.36-16.87-60.53-62.55-47.14-44.32,12.99-90.23,20.98-135.78,29.28-36.61,6.67-57.01,26.56-64.34,63.08-11.56,57.59-24.75,114.86-37.71,172.15-5.17,22.84-13.98,41.27-36.58,55.49-75.83,47.73-75.01,49.02-147.72-3.83-12.51-9.09-26.14-16.97-37.4-27.4-28.31-26.24-48.95-16.04-68.43,11.2-24.28,33.96-45.84,70.99-75.25,99.91-58.63,57.65-64.88,114.95-21.49,185.01,17.01,27.46,37.88,57.59,38.2,93.11,.52,58.88-51.43,130.76-106.69,150.56-29.13,10.44-58.07,21.39-86.99,32.39-27.32,10.39-40.92,29.23-42.94,59.63-3.27,49.25-12.35,98.14-14.91,147.39-5.56,106.79-20.7,92.6,81.58,114.74,19.67,4.26,39.57,7.44,59.3,11.41,12.28,2.47,25.86,5.15,29.41,19.19,14.97,59.07,40.57,116.65-4.98,176.6-30.57,40.23-51.33,87.9-76.6,132.17-12.65,22.16-12.59,43.56,.97,65.69,31.49,51.4,61.93,103.45,93.48,154.81,15.23,24.79,34.28,28.57,57.25,8.23,33.6-29.75,67.32-59.43,102.2-87.64,18.84-15.24,33.99-49.08,64.92-28.78,34.84,22.86,85.07,31.35,83.07,92.61-2.01,61.64,5.99,123.55,8.33,185.39,1.62,42.94,20.56,66.04,65.31,66.62,48.01,.63,96.09,1.74,143.97,5.06,39.5,2.74,62.31-14.76,70.28-51.76,10.42-48.4,21.89-96.84,27.84-145.88,8.72-71.87,36.9-122.97,110.92-148.39,30.35-10.42,48.22-9.13,69.55,10.39,41.05,37.56,82.31,74.89,124.11,111.6,34.85,30.6,55.02,28.53,85.52-6.82,40.38-46.8,79.35-94.92,121.56-140.01,43-45.93,68.56-90.32,20.62-149.39-10.58-13.04-15.62-33.31-26.21-48.39-56.41-80.35-84.77-161.71-24.05-254.56,15.28-23.36,27.27-41.39,56.12-48.32,52.64-12.65,103.87-31.19,156.51-43.81,50.6-12.13,72.72-41.41,70.23-92.89-1.79-37.08-.35-74.32-.35-111.49ZM1130.13,1087.57c102.35-30.73,192.6-63.75,285.63-84.04,87.98-19.19,126.2-63.06,150.62-153.15,71.83-265.04,194.61-502.21,437.62-655.97,1.69-1.07,1.49-5.13,2.75-10.09-25.84-17.14-55.36-24.21-86.23-27.17-126.21-12.1-231.04,39.29-322.32,117.95-247.51,213.3-377.91,495.11-468.07,812.47Zm568.8-176.07c163.38-49.58,314.89-95.66,466.48-141.46,21.62-6.53,27.3-20.95,26.81-42.12-2.69-116.25-12.69-231.33-50.86-342.25-28.34-82.35-31.19-83.93-102.85-30.76-184.75,137.08-269.21,335.54-339.58,556.59Zm583.34-613.68c44.93,130.25,61.84,256.97,66.82,385.53,.85,22.01,10.01,26.11,29.58,19.73,52.8-17.22,105.37-35.55,159.1-49.3,29.26-7.49,34.17-19.71,24.4-45.83-28.4-75.91-63.15-148.16-116.84-209.79-41.46-47.59-90.34-83.99-163.06-100.33Z"/>
      <path class="cls-1" d="M2955.31,4752.57c-26.83-15-17.25-41.03-17.3-62.72-.9-410.41-1.14-820.82-1.45-1231.23-.28-379.44,4.9-758.97-1.96-1138.29-10.66-589.96-2.62-1179.88-5.63-1769.81,24.03,.91,38.5,17.65,53.92,32.69,86.44,84.29,173.82,167.67,258.65,253.56,26.16,26.48,53.11,36.77,89.81,36.5,92.84-.68,185.72,3.73,278.58,3.55,43.49-.09,65.35,17.05,71.02,60.71,10.95,84.32,24.56,168.3,37.03,252.42,69.4,468.04,138.65,936.1,208.23,1404.1,79.81,536.82,159.42,1073.68,240.54,1610.3,9.76,64.58,10.97,131.08,35.5,193.07v55.78c-13.86-8.67-27.3-.6-39.97,2.52-178.67,43.87-357.06,88.85-535.71,132.81-223.67,55.04-447.5,109.39-671.26,164.04Z"/>
      <path class="cls-3" d="M2381.73,2480.37c0,37.17-1.45,74.41,.35,111.49,2.49,51.48-19.63,80.77-70.23,92.89-52.65,12.62-103.87,31.17-156.51,43.81-28.85,6.93-40.85,24.96-56.12,48.32-60.72,92.85-32.36,174.21,24.05,254.56,10.59,15.09,15.62,35.35,26.21,48.39,47.93,59.08,22.38,103.46-20.62,149.39-42.21,45.08-81.18,93.21-121.56,140.01-30.5,35.35-50.67,37.42-85.52,6.82-41.81-36.71-83.07-74.04-124.11-111.6-21.33-19.52-39.2-20.81-69.55-10.39-74.02,25.42-102.2,76.52-110.92,148.39-5.95,49.04-17.42,97.48-27.84,145.88-7.97,37.01-30.77,54.5-70.28,51.76-47.88-3.32-95.96-4.43-143.97-5.06-44.75-.59-63.69-23.69-65.31-66.62-2.33-61.84-10.33-123.75-8.33-185.39,2-61.26-48.23-69.75-83.07-92.61-30.93-20.3-46.08,13.54-64.92,28.78-34.88,28.21-68.6,57.89-102.2,87.64-22.97,20.34-42.03,16.56-57.25-8.23-31.55-51.37-61.99-103.41-93.48-154.81-13.56-22.13-13.61-43.53-.97-65.69,25.27-44.27,46.03-91.95,76.6-132.17,45.56-59.95,19.95-117.53,4.98-176.6-3.56-14.04-17.13-16.72-29.41-19.19-19.73-3.97-39.63-7.15-59.3-11.41-102.28-22.14-87.13-7.95-81.58-114.74,2.56-49.25,11.65-98.15,14.91-147.39,2.02-30.4,15.62-49.24,42.94-59.63,28.92-11,57.87-21.95,86.99-32.39,55.26-19.8,107.21-91.68,106.69-150.56-.31-35.52-21.19-65.65-38.2-93.11-43.39-70.06-37.14-127.37,21.49-185.01,29.41-28.92,50.97-65.95,75.25-99.91,19.48-27.24,40.12-37.44,68.43-11.2,11.26,10.44,24.89,18.31,37.4,27.4,72.71,52.85,71.89,51.56,147.72,3.83,22.6-14.22,31.41-32.66,36.58-55.49,12.96-57.3,26.15-114.57,37.71-172.15,7.33-36.52,27.73-56.41,64.34-63.08,45.55-8.3,91.46-16.29,135.78-29.28,45.68-13.39,59.57,7.78,62.55,47.14,3.04,40.14,4.03,80.59,9.79,120.34,4.11,28.33-6.55,65.86,34.56,77.85,45.46,13.27,89.64,40.82,132.62-13.02,33.45-41.88,77.89-74.9,116.74-112.59,28.43-27.58,52.94-31.12,82.24,1.36,37.18,41.22,77.79,79.46,118.37,117.44,24.6,23.03,27.23,45.32,9.64,73.75-34.15,55.17-66.04,111.72-99.84,167.11-27.83,45.61-19.14,141.74,16.99,181.69,9.65,10.67,21.72,10.34,33.9,11.54,55.48,5.47,110.93,11.32,166.47,16.24,36.8,3.26,56.29,18.99,53.65,59.33-2.53,38.57-.55,77.43-.55,116.16-1.44,0-2.88,0-4.32,0Zm-904.72,673.32c33.41-70.9,62.11-128.18,87.32-186.95,11.03-25.71,26-43.14,50.65-56.69,163.29-89.83,267.58-338.43,216.29-517.16-8.7-30.33-8.49-57.05,3.29-85.44,22.29-53.73,39.4-109.13,53.92-171.22-24.96,14.27-43.99,27.37-64.76,36.53-39.54,17.46-82,40.12-124.11,17.34-97.29-52.64-191.44-41.41-275.38,19.53-58.92,42.77-115.46,53.98-181.74,34.39-20.22-5.98-26.15-.15-20.57,19.55,3.37,11.9,9.36,23.88,9.29,35.8-.3,48.61,37.16,92.83,15.29,143.94-27.39,64-36.33,132.32-30.2,200.32,10.96,121.71,49.21,230.26,171.68,286.41,21.46,9.84,24.94,29.59,31.14,48.74,17.32,53.56,35.32,106.9,57.9,174.92Z"/>
      <path class="cls-2" d="M1477.01,3153.68c-22.58-68.02-40.58-121.36-57.9-174.92-6.19-19.16-9.68-38.9-31.14-48.74-122.47-56.15-160.71-164.7-171.68-286.41-6.13-67.99,2.81-136.31,30.2-200.32,21.87-51.1-15.59-95.33-15.29-143.94,.07-11.92-5.92-23.9-9.29-35.8-5.57-19.7,.36-25.52,20.57-19.55,66.29,19.59,122.82,8.39,181.74-34.39,83.95-60.94,178.09-72.17,275.38-19.53,42.11,22.78,84.56,.12,124.11-17.34,20.77-9.17,39.8-22.27,64.76-36.53-14.52,62.09-31.63,117.48-53.92,171.22-11.78,28.39-11.99,55.11-3.29,85.44,51.28,178.73-53,427.33-216.29,517.16-24.64,13.56-39.62,30.98-50.65,56.69-25.21,58.78-53.91,116.06-87.32,186.95Zm37.13-447.38c86.08-2.63,157.64-64,220.39-139.89,11.1-13.43,10.04-29.45-1.88-42.5-41.45-45.37-87.65-83.23-152.03-89.77-117.03-11.91-195.8,51.39-263.81,135.14-11.07,13.64-10.63,28.66,.52,42.56,45.57,56.8,100.97,95.27,196.81,94.46Z"/>
      <path class="cls-3" d="M1514.14,2706.31c-95.84,.81-151.24-37.66-196.81-94.46-11.15-13.89-11.59-28.92-.52-42.56,68.01-83.76,146.77-147.05,263.81-135.14,64.38,6.55,110.58,44.41,152.03,89.77,11.92,13.05,12.98,29.07,1.88,42.5-62.75,75.89-134.31,137.26-220.39,139.89Zm-34.54-126.59c1.76,24.03,9.84,47.59,39.69,44.25,34.8-3.9,47.04-33.73,48.96-63.67,1.52-23.78-9.27-49.86-38.05-48.39-38.77,1.98-46.94,33.79-50.6,67.81Z"/>
      <path class="cls-2" d="M1479.6,2579.72c3.66-34.02,11.83-65.83,50.6-67.81,28.77-1.47,39.57,24.61,38.05,48.39-1.91,29.94-14.15,59.77-48.96,63.67-29.85,3.35-37.94-20.22-39.69-44.25Z"/>
    </g>
  </g>
</svg>
